<?xml version="1.0" standalone="no"?>
<!DOCTYPE svg PUBLIC "-//W3C//DTD SVG 20010904//EN"
 "http://www.w3.org/TR/2001/REC-SVG-20010904/DTD/svg10.dtd">
<svg version="1.0" xmlns="http://www.w3.org/2000/svg"
 width="622.000000pt" height="401.000000pt" viewBox="0 0 622.000000 401.000000"
 preserveAspectRatio="xMidYMid meet">

<g transform="translate(0.000000,401.000000) scale(0.100000,-0.100000)"
fill="#000000" stroke="none">
<path d="M3651 2781 c-8 -5 -9 -11 -3 -15 5 -3 12 1 16 9 6 17 6 18 -13 6z"/>
<path d="M2630 2720 c0 -5 5 -10 10 -10 6 0 10 5 10 10 0 6 -4 10 -10 10 -5 0
-10 -4 -10 -10z"/>
<path d="M3651 2714 c0 -11 3 -14 6 -6 3 7 2 16 -1 19 -3 4 -6 -2 -5 -13z"/>
<path d="M3707 2651 c-4 -24 -5 -46 -2 -49 11 -11 16 8 13 49 l-3 44 -8 -44z"/>
<path d="M3590 2636 c0 -25 3 -46 8 -46 11 0 13 78 2 85 -6 4 -10 -12 -10 -39z"/>
<path d="M3654 2653 c4 -7 3 -13 -2 -13 -6 0 -8 -10 -4 -22 l5 -22 9 24 c6 15
5 27 -3 34 -9 8 -10 8 -5 -1z"/>
<path d="M2558 2610 c-7 -24 -3 -38 8 -28 3 4 4 17 2 30 l-3 23 -7 -25z"/>
<path d="M2625 2520 c-3 -5 1 -10 10 -10 9 0 13 5 10 10 -3 6 -8 10 -10 10 -2
0 -7 -4 -10 -10z"/>
<path d="M2518 2493 c-24 -6 -23 -19 2 -26 15 -4 20 0 20 14 0 10 -1 18 -2 18
-2 -1 -11 -3 -20 -6z"/>
<path d="M3704 2462 c-13 -12 -20 -13 -35 -4 -10 7 -19 8 -19 3 0 -6 -21 -13
-47 -17 -66 -10 -31 -22 65 -23 66 -1 74 1 79 19 7 25 12 25 29 3 7 -10 14
-13 14 -7 1 30 -63 49 -86 26z m-57 -28 c-3 -3 -12 -4 -19 -1 -8 3 -5 6 6 6
11 1 17 -2 13 -5z"/>
<path d="M2550 2440 c0 -5 5 -10 10 -10 6 0 10 5 10 10 0 6 -4 10 -10 10 -5 0
-10 -4 -10 -10z"/>
<path d="M2561 2354 c0 -11 3 -14 6 -6 3 7 2 16 -1 19 -3 4 -6 -2 -5 -13z"/>
<path d="M2490 2300 c1 -13 40 -53 40 -42 0 8 10 22 23 32 l22 18 -42 -1 c-24
-1 -43 -4 -43 -7z"/>
<path d="M2592 2248 c3 -7 13 -15 24 -17 16 -3 17 -1 5 13 -16 19 -34 21 -29
4z"/>
<path d="M2657 2243 c-9 -9 12 -33 29 -33 8 0 14 5 14 10 0 6 -8 10 -17 10
-15 0 -16 2 -3 10 13 8 13 10 -1 10 -9 0 -19 -3 -22 -7z"/>
<path d="M2526 2231 c-3 -5 3 -11 14 -14 21 -5 32 1 24 14 -7 12 -31 11 -38 0z"/>
<path d="M4918 1489 c-10 -5 -18 -19 -18 -30 0 -12 -9 -28 -21 -38 l-20 -16
20 -27 c17 -21 21 -40 21 -101 0 -79 7 -93 40 -82 18 6 20 15 20 87 0 70 2 80
19 85 30 8 32 39 5 62 -13 12 -24 32 -24 46 0 26 -14 31 -42 14z"/>
<path d="M1315 1468 c-61 -21 -95 -71 -95 -138 0 -60 24 -98 76 -122 46 -20
116 -18 130 3 11 19 -18 39 -50 35 -46 -5 -75 10 -91 48 -30 72 10 131 89 128
36 -2 55 9 56 30 0 6 -67 29 -80 27 -3 0 -18 -5 -35 -11z"/>
<path d="M4705 1419 c-49 -29 -65 -58 -63 -110 2 -45 7 -55 40 -85 21 -19 49
-34 62 -34 37 0 76 18 76 35 0 11 -12 15 -50 15 -65 0 -94 28 -85 80 9 51 39
73 91 65 43 -6 66 7 46 27 -16 16 -94 20 -117 7z"/>
<path d="M1540 1403 c-12 -9 -19 -21 -16 -30 3 -8 2 -12 -3 -9 -12 8 -21 -18
-21 -58 0 -56 65 -122 87 -87 8 13 6 19 -13 28 -22 10 -23 9 -13 -11 10 -20 9
-20 -5 -2 -9 11 -14 36 -13 62 1 24 -2 46 -8 48 -5 3 -2 5 8 5 10 1 16 5 13
10 -3 5 1 11 9 15 8 3 15 13 15 22 0 14 3 15 18 3 14 -11 15 -11 5 1 -18 19
-38 20 -63 3z"/>
<path d="M1607 1222 c-15 -16 -15 -19 -2 -19 8 0 13 3 10 5 -3 3 0 11 6 19 17
20 5 16 -14 -5z"/>
</g>
</svg>
